<?xml version="1.0" encoding="UTF-8" standalone="no"?>
<svg
   width="4.1698613in"
   height="2.3899732in"
   viewBox="0 0 300.53 172.21806"
   version="1.1"
   id="svg78"
   xmlns="http://www.w3.org/2000/svg"
   xmlns:svg="http://www.w3.org/2000/svg">
  <defs
     id="defs82" />
  <g
     id="a"
     transform="translate(-0.01,0.00402944)">
    <path
       d="m 293.47,74.51 c -1.89,0 -3.51,-0.69 -4.87,-2.06 -1.36,-1.38 -2.04,-3.02 -2.04,-4.92 0,-1.9 0.68,-3.58 2.05,-4.94 1.37,-1.36 3.01,-2.05 4.94,-2.05 1.93,0 3.57,0.68 4.94,2.05 1.37,1.36 2.05,3 2.05,4.92 0,1.92 -0.68,3.61 -2.06,4.97 -1.37,1.36 -3.04,2.04 -5.01,2.04 z m 0,-1.01 c 1.95,0 3.5,-0.71 4.65,-2.15 0.94,-1.17 1.41,-2.45 1.41,-3.84 0,-1.39 -0.47,-2.66 -1.41,-3.82 -1.15,-1.43 -2.67,-2.15 -4.57,-2.15 -1.9,0 -3.42,0.72 -4.57,2.15 -0.94,1.17 -1.41,2.45 -1.41,3.83 0,1.63 0.58,3.03 1.74,4.21 1.17,1.18 2.55,1.77 4.16,1.77 z m -2.21,-2.18 v -7.55 h 2.37 c 0.76,0 1.33,0.15 1.71,0.46 0.38,0.31 0.57,0.77 0.57,1.38 0,0.45 -0.11,0.86 -0.33,1.23 -0.22,0.37 -0.54,0.68 -0.98,0.95 l 2.27,3.53 h -1.41 l -2.03,-3.16 h -0.95 v 3.16 z m 1.15,-4.1 h 0.34 c 0.65,0 1.14,-0.12 1.47,-0.37 0.33,-0.25 0.49,-0.62 0.49,-1.11 0,-0.39 -0.14,-0.69 -0.41,-0.88 -0.27,-0.2 -0.68,-0.29 -1.23,-0.29 h -0.66 v 2.66 z"
       fill="#746e63"
       id="path2"
       clip-path="none" />
  </g>
  <g
     id="b"
     transform="translate(-0.01,0.00402944)">
    <g
       id="g19">
      <path
         d="m 1.47,86.63 c 0,0 -0.21,-1.05 -0.92,-0.98 0,0 -0.46,0.17 -0.54,0.69 l 0.15,1.06 0.49,2.2 0.22,1.55 0.08,1.33 c 0,0 0.02,1.03 0.29,1.41 0,0 0.32,0.42 0.66,0.54 l 2.08,0.91 3.03,0.91 c 0,0 2.57,0.67 4.1,0.81 1.53,0.13 0.89,0.44 9.03,0.25 0,0 5.97,-0.37 9.95,-3.34 0,0 1.83,-1.21 2.76,-2.5 0,0 1.06,-1.28 1.46,-2.35 0,0 0.84,-2.08 0.67,-3.43 0,0 0.27,-1.75 -1.5,-4.69 0,0 -1.7,-2.54 -5.61,-4.22 0,0 -6.35,-2.2 -9.35,-3.18 0,0 -5.06,-1.63 -5.43,-1.83 0,0 -3.75,-1.18 -5.18,-4.84 0,0 -0.92,-2.3 -0.24,-4.71 0,0 0.62,-2.82 3.56,-4.51 0,0 2.82,-1.58 6.3,-1.31 0,0 3.01,0.57 4.08,1.18 0,0 2.69,1.24 3.38,1.98 0,0 1.81,1.45 2.27,2.25 0,0 1.13,1.61 1.18,2.05 l 0.49,1.2 c 0,0 0.28,0.83 0.95,0.7 0,0 0.5,0 0.4,-0.89 0,0 -0.59,-2.24 -0.72,-2.39 0,0 -0.56,-1.61 -0.54,-2.02 0,0 -0.3,-1.84 -0.25,-2.12 l -0.09,-2.26 c 0,0 0.07,-0.84 -0.49,-0.84 0,0 -0.4,0.02 -0.64,0.49 0,0 -0.17,0.97 -1.14,0.87 0,0 -0.59,0.02 -1.19,-0.25 0,0 -4.6,-1.26 -6.03,-1.39 0,0 -5.15,-0.64 -8.47,0.16 0,0 -7.5,1.21 -9.18,7.39 0,0 -1.29,5.28 1.84,8.57 0,0 2.35,2.39 6.53,3.91 l 9.31,3.13 c 0,0 5.32,1.72 6.65,3.25 0,0 3.56,2.54 2.15,7.59 0,0 -0.86,4.18 -6.45,5.91 0,0 -1.87,1.08 -6.92,0.82 0,0 -4.34,-0.12 -6.57,-1.72 0,0 -3.25,-1.68 -4.81,-3.95 0,0 -1.41,-1.97 -1.8,-3.37 z"
         fill="#746e63"
         id="path5"
         clip-path="none" />
      <path
         d="m 57.61,65.75 c 0,0 -7.17,-0.18 -8.26,-0.18 0,0 -1.46,-0.09 -1.64,-0.1 -0.18,-0.01 -0.69,-0.03 -0.69,-0.03 0,0 -0.72,-0.07 -0.78,0.33 0,0 -0.09,0.34 0.56,0.4 0,0 1.5,0.09 1.7,0.16 0,0 1.57,0.09 2.48,1.31 0,0 0.66,0.76 0.79,1.58 0,0 0.22,0.91 0.21,2.45 v 16.35 c 0,0 0.03,2.98 -0.07,3.32 0,0 -0.09,1.74 -0.47,2.24 0,0 -0.3,0.77 -1.93,1.15 0,0 -0.81,0.13 -1.2,0.14 0,0 -0.9,0.02 -0.9,0.38 0,0 0.05,0.45 0.67,0.33 l 5.47,-0.21 c 0,0 5.63,0.11 7.57,0.36 0,0 4.69,0.43 5.6,0.35 0,0 2.76,0.16 5.06,-1.31 0,0 0.88,-0.49 1.63,-1.47 0,0 0.98,-1.19 1.25,-1.91 0,0 0.6,-1.09 0.2,-1.41 0,0 -0.36,-0.32 -0.68,0.24 0,0 -1.11,1.68 -2.47,2.32 0,0 -2,1.26 -5.16,1.55 0,0 -3.66,0.48 -6.19,0.21 0,0 -2.09,0.05 -3.04,-0.88 0,0 -0.62,-0.38 -0.6,-2.06 v -9.2 c 0,0 -0.14,-1.37 0.75,-1.28 l 6.77,0.03 c 0,0 2.3,0.11 3.22,1.19 0,0 0.66,0.75 0.83,1.31 l 0.31,0.97 c 0,0 0.14,0.81 0.62,0.71 0,0 0.38,0.11 0.29,-0.7 0,0 -0.1,-1.6 -0.21,-2.23 0,0 -0.14,-1.56 -0.01,-2.43 l 0.22,-1.71 c 0,0 0.23,-1.27 0.22,-1.41 0,0 0.16,-0.41 -0.38,-0.45 0,0 -0.36,-0.07 -0.49,0.53 0,0 -0.19,1.26 -0.41,1.49 0,0 -0.2,0.6 -1.31,0.97 0,0 -1.14,0.45 -3.13,0.29 h -5.76 c 0,0 -0.91,0.04 -1.27,-0.25 0,0 -0.24,-0.16 -0.25,-1.18 v -8.68 c 0,0 -0.23,-2.19 1.34,-2.19 l 6.59,0.02 c 0,0 2.86,0.05 3.87,0.6 0,0 1.47,0.68 2.03,1.82 0,0 0.4,0.74 0.45,1.02 0,0 0.09,0.86 0.59,0.84 0,0 0.46,0.06 0.37,-0.56 0,0 0.05,-0.86 -0.05,-1.33 0,0 -0.12,-1.29 -0.09,-1.41 0,0 0.01,-0.77 0.1,-1.36 0,0 0.34,-1.4 -0.61,-1.35 0,0 -1.39,0.22 -1.78,0.24 0,0 -0.33,0.08 -1.36,0.07 H 57.64 Z"
         fill="#746e63"
         id="path7"
         clip-path="none" />
      <path
         d="m 189.11,65.77 c 0,0 -7.17,-0.18 -8.26,-0.18 0,0 -1.46,-0.09 -1.64,-0.1 -0.18,-0.01 -0.69,-0.03 -0.69,-0.03 0,0 -0.72,-0.07 -0.78,0.33 0,0 -0.09,0.34 0.56,0.4 0,0 1.5,0.09 1.7,0.16 0,0 1.57,0.09 2.48,1.31 0,0 0.66,0.76 0.79,1.58 0,0 0.22,0.91 0.21,2.45 v 16.35 c 0,0 0.03,2.98 -0.07,3.32 0,0 -0.09,1.74 -0.47,2.24 0,0 -0.3,0.77 -1.93,1.15 0,0 -0.81,0.13 -1.2,0.14 0,0 -0.9,0.02 -0.9,0.38 0,0 0.05,0.45 0.67,0.33 l 5.47,-0.21 c 0,0 5.63,0.11 7.57,0.36 0,0 4.69,0.43 5.6,0.35 0,0 2.76,0.16 5.06,-1.31 0,0 0.88,-0.49 1.63,-1.47 0,0 0.98,-1.19 1.25,-1.91 0,0 0.6,-1.09 0.2,-1.41 0,0 -0.36,-0.32 -0.68,0.24 0,0 -1.11,1.68 -2.47,2.32 0,0 -2,1.26 -5.16,1.55 0,0 -3.66,0.48 -6.19,0.21 0,0 -2.09,0.05 -3.04,-0.88 0,0 -0.62,-0.38 -0.6,-2.06 v -9.2 c 0,0 -0.14,-1.37 0.75,-1.29 l 6.77,0.03 c 0,0 2.3,0.11 3.22,1.19 0,0 0.66,0.75 0.83,1.31 l 0.31,0.97 c 0,0 0.14,0.81 0.62,0.71 0,0 0.38,0.11 0.29,-0.7 0,0 -0.1,-1.6 -0.21,-2.23 0,0 -0.14,-1.56 -0.01,-2.43 l 0.22,-1.71 c 0,0 0.23,-1.27 0.22,-1.41 0,0 0.16,-0.41 -0.38,-0.45 0,0 -0.36,-0.07 -0.49,0.53 0,0 -0.19,1.26 -0.41,1.49 0,0 -0.2,0.6 -1.31,0.97 0,0 -1.14,0.45 -3.13,0.29 h -5.76 c 0,0 -0.91,0.04 -1.27,-0.25 0,0 -0.24,-0.16 -0.25,-1.18 v -8.68 c 0,0 -0.23,-2.19 1.34,-2.19 l 6.59,0.02 c 0,0 2.86,0.05 3.87,0.6 0,0 1.47,0.68 2.03,1.82 0,0 0.4,0.74 0.45,1.02 0,0 0.09,0.86 0.59,0.84 0,0 0.46,0.06 0.37,-0.56 0,0 0.05,-0.86 -0.05,-1.33 0,0 -0.12,-1.29 -0.09,-1.41 0,0 0.01,-0.77 0.1,-1.36 0,0 0.34,-1.4 -0.61,-1.35 0,0 -1.39,0.22 -1.78,0.24 0,0 -0.33,0.08 -1.36,0.07 h -10.54 z"
         fill="#746e63"
         id="path9"
         clip-path="none" />
      <path
         d="m 119,67.2 c 0,0 0.55,0.03 0.85,-0.38 0,0 0.21,-0.27 0.31,-0.54 0,0 0.21,-0.37 0.57,-0.28 0,0 0.62,-0.07 0.5,0.64 0,0 -0.33,1.74 -0.31,2.48 0,0 -0.04,1.42 0.03,1.83 0,0 0.44,2.17 0.57,2.38 0,0 0.44,1.63 -0.79,0.85 0,0 -0.91,-1.8 -0.99,-1.9 -0.09,-0.1 -1.56,-2.58 -4.38,-4.25 0,0 -2.58,-1.49 -4.32,-1.97 0,0 -5,-1.73 -9.63,-0.2 0,0 -5.06,1.22 -7.86,5 0,0 -3.14,3.61 -3.38,8.2 0,0 -0.52,4.63 2.65,8.89 0,0 3.09,4.55 8.64,6.05 0,0 3.31,1.05 6.32,1.02 0,0 4.23,0.25 6.19,-0.62 0,0 3.17,-0.99 4.87,-2.66 l 1.23,-1.09 c 0,0 1.16,-1.44 1.57,-1.15 0,0 0.76,0.26 -0.67,1.85 0,0 -1.64,1.93 -3.95,3.03 0,0 -2.58,1.46 -5.48,2 0,0 -10.41,2.65 -18.98,-2.84 0,0 -7.51,-3.65 -7.51,-13.45 0,0 0.07,-6.66 5.8,-11.33 0,0 5.05,-4.81 15.39,-4.78 0,0 4.74,-0.17 11.09,2.8 0,0 0.76,0.44 1.68,0.43 z"
         fill="#746e63"
         id="path11"
         clip-path="none" />
      <path
         d="m 140.48,65.68 c 0.88,-0.07 4.89,-0.34 4.89,-0.34 1.49,-0.24 5.25,-0.09 5.25,-0.09 3.82,-0.02 6.11,1.52 6.11,1.52 3.27,1.91 3.51,4.94 3.51,4.94 0.44,3.03 -1.78,5.28 -1.78,5.28 -1.63,1.84 -4.5,3.03 -4.5,3.03 -0.52,0.31 -0.29,0.47 -0.29,0.47 l 0.44,0.75 3.21,4.72 c 2.15,2.9 4.79,5.41 4.79,5.41 2.21,2.06 3.74,2.56 3.74,2.56 0.55,0.27 1.28,0.39 1.28,0.39 l 0.7,0.34 c 0.73,0.44 0.36,0.62 0.36,0.62 -0.12,0.12 -0.67,0.24 -0.67,0.24 -0.4,0.13 -0.96,0.17 -1.5,0.19 -0.8,0.02 -1.54,-0.05 -1.54,-0.05 -2.95,-0.05 -5.25,-2.03 -5.25,-2.03 -2.11,-1.75 -3.65,-3.95 -3.65,-3.95 l -2.87,-3.65 c -1.2,-1.68 -3.13,-3.66 -3.13,-3.66 -0.89,-0.74 -2.07,-0.92 -2.07,-0.92 -0.53,-0.1 -3.54,-0.16 -3.54,-0.16 -0.25,0.02 -0.81,0.15 -0.81,0.15 -0.15,0.01 -0.19,0.57 -0.19,0.57 v 6.39 c -0.02,0.39 0.05,1.88 0.05,1.88 0.19,2.54 1.46,3.4 1.46,3.4 1.18,1.07 3.57,1.16 3.57,1.16 1.33,0 1.25,0.31 1.25,0.31 0.04,0.43 -0.62,0.41 -0.62,0.41 -1.14,0.31 -3.97,-0.02 -3.97,-0.02 -1.43,-0.24 -5.56,-0.2 -5.56,-0.2 l -4.41,0.29 c -0.72,0.09 -0.79,-0.27 -0.79,-0.27 0,-0.24 0.33,-0.36 0.33,-0.36 l 1.04,-0.2 c 0.95,-0.13 1.44,-0.45 1.44,-0.45 1.16,-0.55 1.41,-1.84 1.41,-1.84 0.31,-0.81 0.13,-3.39 0.13,-3.39 v -8.44 c 0,0 -0.02,-9.27 -0.02,-9.27 0.01,-0.87 -0.16,-2.03 -0.16,-2.03 -0.08,-0.99 -0.66,-1.75 -0.66,-1.75 -0.71,-0.89 -2.08,-1.11 -2.08,-1.11 -0.42,-0.12 -1.89,-0.29 -1.89,-0.29 -0.64,-0.12 -0.59,-0.4 -0.59,-0.4 -0.02,-0.36 0.53,-0.35 0.53,-0.35 h 1.15 c 0,0 2.73,0.23 2.73,0.23 1.08,0.19 3.15,0 3.15,0 z m 2.49,12.72 c -0.1,1.51 1.44,1.56 1.44,1.56 1.4,0.28 2.34,0.14 2.34,0.14 5.28,-0.38 7.28,-2.89 7.28,-2.89 3.71,-4.11 -0.47,-8.11 -0.47,-8.11 -2.96,-2.93 -8.8,-2.67 -8.8,-2.67 -0.66,-0.07 -1.37,0.38 -1.37,0.38 -0.52,0.47 -0.42,1.8 -0.42,1.8 z"
         fill="#746e63"
         id="path13"
         clip-path="none" />
      <path
         d="m 259.21,88.33 c 0,0 -0.16,-0.78 -0.68,-0.73 0,0 -0.34,0.13 -0.4,0.52 l 0.11,0.78 0.36,1.63 0.16,1.14 0.06,0.98 c 0,0 0.01,0.76 0.21,1.04 0,0 0.24,0.31 0.48,0.4 l 1.54,0.67 2.23,0.67 c 0,0 1.9,0.5 3.03,0.6 1.13,0.1 0.66,0.32 6.67,0.19 0,0 4.41,-0.27 7.35,-2.47 0,0 1.35,-0.9 2.04,-1.85 0,0 0.78,-0.94 1.08,-1.74 0,0 0.62,-1.54 0.5,-2.53 0,0 0.2,-1.29 -1.11,-3.46 0,0 -1.25,-1.88 -4.15,-3.12 0,0 -4.69,-1.63 -6.9,-2.35 0,0 -3.74,-1.2 -4.01,-1.35 0,0 -2.77,-0.87 -3.83,-3.58 0,0 -0.68,-1.7 -0.17,-3.48 0,0 0.46,-2.09 2.63,-3.33 0,0 2.09,-1.17 4.66,-0.97 0,0 2.22,0.42 3.02,0.87 0,0 1.99,0.92 2.5,1.47 0,0 1.34,1.07 1.67,1.66 0,0 0.83,1.19 0.87,1.51 l 0.37,0.89 c 0,0 0.21,0.62 0.7,0.52 0,0 0.37,0 0.3,-0.66 0,0 -0.44,-1.65 -0.53,-1.76 0,0 -0.41,-1.19 -0.4,-1.49 0,0 -0.22,-1.36 -0.19,-1.57 l -0.06,-1.67 c 0,0 0.05,-0.62 -0.36,-0.62 0,0 -0.3,0.01 -0.47,0.36 0,0 -0.12,0.72 -0.84,0.65 0,0 -0.43,0.01 -0.88,-0.19 0,0 -3.4,-0.93 -4.45,-1.03 0,0 -3.8,-0.47 -6.26,0.12 0,0 -5.54,0.89 -6.78,5.46 0,0 -0.95,3.9 1.36,6.33 0,0 1.73,1.76 4.82,2.89 l 6.88,2.31 c 0,0 3.93,1.27 4.91,2.4 0,0 2.63,1.88 1.59,5.6 0,0 -0.63,3.09 -4.77,4.36 0,0 -1.38,0.8 -5.11,0.61 0,0 -3.21,-0.09 -4.85,-1.27 0,0 -2.4,-1.25 -3.55,-2.92 0,0 -1.04,-1.46 -1.33,-2.48 z"
         fill="#746e63"
         id="path15"
         clip-path="none" />
      <path
         d="m 245.33,65.38 h -26.54 c 0,0 -1.41,-0.11 -1.32,0.73 0,0 0.02,0.95 -0.16,1.63 l -0.33,1.59 c 0,0 -0.26,0.99 0.2,1.15 0,0 0.44,0.18 0.62,-0.71 0,0 0.22,-0.75 0.64,-1.48 0,0 0.9,-1.1 3.05,-1.1 h 7.06 c 0,0 0.97,0 0.97,0.97 v 23.16 c 0,0 0.31,2.52 -2.14,3.07 0,0 -1.94,0.55 -3.49,0.6 0,0 -1.88,0.11 -1.67,0.41 0,0 -0.21,0.39 1.6,0.32 l 5.67,-0.29 c 0,0 12.52,-0.04 14.35,0.26 0,0 1.02,0.02 0.71,-0.4 0,0 0.09,-0.29 -1.08,-0.29 0,0 -3.95,-0.11 -5.87,-0.93 0,0 -2.03,-0.71 -2.25,-2.19 0,0 -0.29,-1.19 -0.29,-3.16 v -20.6 c 0,0 0,-1.04 0.99,-0.99 l 6.67,0.02 c 0,0 2.54,0.09 3.4,1.3 l 0.49,1.19 c 0,0 0.26,0.95 0.71,0.79 0,0 0.53,0.2 0.22,-0.88 l -0.35,-1.68 c 0,0 -0.02,-1.55 -0.02,-1.67 0,0 0.1,-0.67 -0.73,-0.77 l -1.1,-0.07 z"
         fill="#746e63"
         id="path17"
         clip-path="none" />
    </g>
    <g
       id="g31">
      <path
         d="m 108.87,21.07 c -1.11,1.23 -2.23,2.45 -3.36,3.66 0.45,0.33 0.86,0.75 1.23,1.23 0.28,0.36 0.61,0.84 0.97,1.36 0.89,1.28 2.01,2.88 2.92,3.64 0.04,0.03 0.07,0.05 0.1,0.08 -1.47,-4.79 -1.62,-8.33 -1.5,-10.35 -0.11,0.11 -0.22,0.24 -0.36,0.39 z"
         fill="#cfab66"
         id="path21"
         clip-path="none" />
      <path
         d="m 111.53,19.15 c 0,0 -0.02,0.07 -0.03,0.1 v 0 c -0.01,0.05 -1.08,4.93 1.88,13.1 1.06,1.03 1.94,1.53 2.57,1.78 -1.38,-9.81 -1.33,-16.61 -1.22,-19.37 -0.35,0.15 -0.79,0.38 -1.32,0.77 -1.55,1.13 -1.89,3.6 -1.9,3.63 z"
         fill="#cfab66"
         id="path23"
         clip-path="none" />
      <path
         d="m 124.32,38.08 c 0.17,0 0.33,0 0.47,-0.02 -0.48,-4.45 -2.01,-21.86 2.33,-29.72 -0.6,-0.1 -1.15,-0.15 -1.65,-0.15 -1.51,0 -2.86,0.42 -4.81,1.49 -2.4,1.31 -3.49,3.5 -3.73,4.04 -0.08,1.18 -0.51,9.06 1.31,21.24 1.99,2.56 4.4,3.11 6.1,3.11 z"
         fill="#cfab66"
         id="path25"
         clip-path="none" />
      <path
         d="m 158.26,39.71 c 1.82,0.69 3.55,1.34 5.4,1.34 0.69,0 1.35,-0.09 2.03,-0.27 3.8,-1.01 7.44,-4.9 9.36,-8.3 1.78,-3.16 2.31,-7.26 1.53,-11.39 -1.46,-4 -2.2,-5.85 -8.34,-7.26 -6.67,-1.03 -10.11,8.3 -11.76,12.79 -0.48,1.29 -0.89,2.66 -1.29,3.98 -0.77,2.55 -1.57,5.17 -2.87,7.57 0.3,0.02 0.6,0.05 0.93,0.1 1.81,0.24 3.43,0.85 5,1.44 z"
         fill="#cfab66"
         id="path27"
         clip-path="none" />
      <path
         d="m 129.96,42.44 c 1.75,1.11 5.11,2.36 7.91,2.48 2.35,0.1 4.63,-0.41 6.88,-1.5 1.47,-0.71 3.99,-3.7 4.87,-4.84 1.73,-2.55 2.62,-5.49 3.56,-8.6 0.41,-1.35 0.83,-2.75 1.33,-4.1 1.67,-4.54 5.53,-15.04 13.59,-14.2 -0.25,-0.19 -0.51,-0.39 -0.8,-0.61 -0.48,-0.36 -1.02,-0.78 -1.66,-1.25 -0.97,-0.71 -1.92,-1.6 -2.92,-2.54 -1.72,-1.61 -3.67,-3.44 -6.33,-4.96 -2.77,-1.57 -5.59,-2.34 -8.62,-2.34 -2.13,0 -4.41,0.39 -6.78,1.15 -6.12,1.97 -10.88,6.69 -11.34,7.16 -5.26,6.85 -2.9,28.3 -2.66,30.35 0.29,0.58 1.47,2.81 2.99,3.78 z"
         fill="#cfab66"
         id="path29"
         clip-path="none" />
    </g>
    <g
       id="g61">
      <path
         d="m 55.68,172.09 v -11.61 h 3.68 c 1.11,0 1.99,0.3 2.65,0.9 0.66,0.6 0.99,1.4 0.99,2.41 0,0.67 -0.17,1.27 -0.51,1.79 -0.34,0.52 -0.8,0.9 -1.39,1.13 -0.59,0.24 -1.43,0.35 -2.52,0.35 h -1.23 v 5.03 z m 3.39,-10.13 h -1.72 v 3.63 h 1.82 c 0.67,0 1.2,-0.16 1.56,-0.48 0.36,-0.32 0.55,-0.77 0.55,-1.37 0,-1.19 -0.74,-1.78 -2.21,-1.78 z"
         fill="#746e63"
         id="path33"
         clip-path="none" />
      <path
         d="m 65.8,160.49 h 1.66 v 10.08 h 5.22 v 1.51 H 65.8 v -11.6 z"
         fill="#746e63"
         id="path35"
         clip-path="none" />
      <path
         d="m 79.19,160.43 h 1.17 l 5.2,11.66 h -1.7 l -1.55,-3.44 h -4.95 l -1.45,3.44 H 74.2 l 4.98,-11.66 z m 2.44,6.75 -1.87,-4.2 -1.73,4.2 h 3.61 z"
         fill="#746e63"
         id="path37"
         clip-path="none" />
      <path
         d="m 93.3,160.49 h 2.02 l -4.28,5.46 v 6.13 h -1.7 v -6.13 l -4.28,-5.46 h 2 l 3.1,4 3.15,-4 z"
         fill="#746e63"
         id="path39"
         clip-path="none" />
      <path
         d="m 99.79,160.43 h 1.17 l 5.2,11.66 h -1.7 l -1.55,-3.44 h -4.95 l -1.45,3.44 H 94.8 l 4.98,-11.66 z m 2.44,6.75 -1.87,-4.2 -1.73,4.2 h 3.61 z"
         fill="#746e63"
         id="path41"
         clip-path="none" />
      <path
         d="m 114.88,172.07 v -11.58 h 3.91 c 1.58,0 2.82,0.24 3.74,0.71 0.92,0.47 1.65,1.17 2.19,2.09 0.54,0.92 0.81,1.92 0.81,3 0,0.77 -0.15,1.52 -0.45,2.22 -0.3,0.7 -0.73,1.33 -1.28,1.87 -0.56,0.55 -1.22,0.97 -1.97,1.25 -0.44,0.17 -0.84,0.29 -1.2,0.34 -0.37,0.06 -1.06,0.09 -2.09,0.09 h -3.67 z m 3.73,-10.1 h -2.08 v 8.62 h 2.12 c 0.83,0 1.47,-0.06 1.93,-0.17 0.46,-0.11 0.84,-0.26 1.15,-0.43 0.31,-0.17 0.59,-0.39 0.84,-0.64 0.82,-0.83 1.23,-1.88 1.23,-3.15 0,-1.27 -0.42,-2.26 -1.26,-3.05 -0.31,-0.29 -0.67,-0.53 -1.07,-0.72 -0.4,-0.19 -0.78,-0.31 -1.14,-0.37 -0.36,-0.06 -0.94,-0.09 -1.73,-0.09 z"
         fill="#746e63"
         id="path43"
         clip-path="none" />
      <path
         d="m 128.97,160.49 h 6.57 v 1.48 h -4.91 v 3.54 h 4.75 V 167 h -4.75 v 3.6 h 5.07 v 1.48 h -6.73 V 160.5 Z"
         fill="#746e63"
         id="path45"
         clip-path="none" />
      <path
         d="m 138.83,160.49 h 1.66 v 10.08 h 5.22 v 1.51 h -6.88 v -11.6 z"
         fill="#746e63"
         id="path47"
         clip-path="none" />
      <path
         d="m 164.61,169.4 v 1.83 c -1.22,0.66 -2.62,1 -4.22,1 -1.29,0 -2.39,-0.26 -3.3,-0.78 -0.9,-0.52 -1.62,-1.24 -2.14,-2.15 -0.53,-0.91 -0.79,-1.9 -0.79,-2.96 0,-1.69 0.6,-3.11 1.81,-4.26 1.2,-1.15 2.69,-1.73 4.45,-1.73 1.22,0 2.57,0.32 4.06,0.96 v 1.79 c -1.36,-0.78 -2.68,-1.16 -3.98,-1.16 -1.3,0 -2.43,0.42 -3.31,1.26 -0.88,0.84 -1.32,1.89 -1.32,3.15 0,1.26 0.43,2.32 1.29,3.14 0.86,0.82 1.97,1.23 3.31,1.23 1.34,0 2.78,-0.43 4.12,-1.29 z"
         fill="#746e63"
         id="path49"
         clip-path="none" />
      <path
         d="m 172.13,160.43 h 1.17 l 5.2,11.66 h -1.7 l -1.54,-3.44 h -4.95 l -1.45,3.44 h -1.71 z m 2.44,6.75 -1.87,-4.2 -1.73,4.2 h 3.61 z"
         fill="#746e63"
         id="path51"
         clip-path="none" />
      <path
         d="m 181.18,172.09 v -11.6 h 2.91 c 1.17,0 2.1,0.29 2.79,0.87 0.69,0.58 1.03,1.37 1.03,2.36 0,0.67 -0.17,1.26 -0.51,1.75 -0.34,0.49 -0.82,0.86 -1.45,1.1 0.37,0.24 0.73,0.58 1.09,1 0.36,0.42 0.85,1.15 1.49,2.2 0.4,0.66 0.73,1.15 0.97,1.49 l 0.61,0.83 h -1.97 l -0.5,-0.76 c 0,0 -0.05,-0.08 -0.1,-0.14 l -0.32,-0.46 -0.51,-0.85 -0.55,-0.91 c -0.34,-0.48 -0.66,-0.86 -0.94,-1.14 -0.29,-0.28 -0.54,-0.49 -0.77,-0.61 -0.23,-0.12 -0.62,-0.19 -1.16,-0.19 h -0.43 v 5.05 h -1.66 z m 2.16,-10.19 h -0.5 v 3.66 h 0.63 c 0.84,0 1.42,-0.07 1.73,-0.22 0.31,-0.15 0.56,-0.36 0.73,-0.65 0.17,-0.29 0.26,-0.62 0.26,-0.99 0,-0.37 -0.1,-0.7 -0.29,-0.99 -0.19,-0.3 -0.47,-0.5 -0.82,-0.63 -0.35,-0.12 -0.93,-0.18 -1.75,-0.18 z"
         fill="#746e63"
         id="path53"
         clip-path="none" />
      <path
         d="m 201.98,160.49 h 1.55 v 11.6 h -1.67 v -9.02 l -3.56,4.48 h -0.31 l -3.61,-4.48 v 9.02 h -1.66 v -11.6 h 1.57 l 3.85,4.76 3.83,-4.76 z"
         fill="#746e63"
         id="path55"
         clip-path="none" />
      <path
         d="m 207.39,160.49 h 6.57 v 1.48 h -4.91 v 3.54 h 4.75 V 167 h -4.75 v 3.6 h 5.07 v 1.48 h -6.73 V 160.5 Z"
         fill="#746e63"
         id="path57"
         clip-path="none" />
      <path
         d="m 226.46,160.49 h 1.58 v 11.6 h -1.43 l -7.75,-8.93 v 8.93 h -1.56 v -11.6 h 1.34 l 7.82,9.01 z"
         fill="#746e63"
         id="path59"
         clip-path="none" />
    </g>
    <g
       id="g75">
      <path
         d="m 135.13,130.51 c -1.16,2.58 -2.56,4.82 -4.2,6.72 -1.64,1.9 -3.47,3.47 -5.49,4.7 -2.02,1.23 -4.2,2.15 -6.55,2.74 -2.35,0.6 -4.8,0.9 -7.34,0.9 -0.78,0 -1.44,0.03 -1.96,0.08 -0.52,0.06 -0.95,0.11 -1.29,0.17 -0.34,0.06 -0.62,0.1 -0.84,0.14 -0.22,0.04 -0.45,0.06 -0.67,0.06 -0.34,0 -0.62,-0.05 -0.84,-0.14 -0.22,-0.09 -0.34,-0.25 -0.34,-0.48 0,-0.3 0.16,-0.48 0.48,-0.53 0.32,-0.06 0.57,-0.08 0.76,-0.08 0.52,0 1.03,0.04 1.51,0.11 0.48,0.08 0.99,0.15 1.51,0.22 2.24,-1.08 4.14,-2.64 5.71,-4.68 1.57,-2.03 2.97,-4.31 4.2,-6.83 1.23,-2.52 2.38,-5.16 3.44,-7.92 1.06,-2.76 2.24,-5.38 3.53,-7.87 1.29,-2.48 2.77,-4.72 4.45,-6.72 1.68,-2 3.73,-3.5 6.16,-4.51 l -0.11,-0.11 c -1.61,0.26 -3.32,0.97 -5.15,2.13 -1.83,1.16 -3.67,2.6 -5.52,4.34 -1.85,1.74 -3.68,3.68 -5.49,5.82 -1.81,2.15 -3.54,4.36 -5.18,6.64 -1.27,1.79 -2.57,3.62 -3.89,5.49 -1.33,1.87 -2.7,3.69 -4.12,5.46 -1.42,1.77 -2.93,3.48 -4.54,5.12 -1.61,1.64 -3.36,3.16 -5.26,4.54 l -0.39,-0.56 c 1.31,-2.05 2.36,-4.26 3.16,-6.61 0.8,-2.35 1.55,-4.74 2.24,-7.17 0.69,-2.43 1.39,-4.83 2.1,-7.22 0.71,-2.39 1.61,-4.67 2.72,-6.83 1.1,-2.16 2.47,-4.16 4.12,-5.99 1.64,-1.83 3.71,-3.38 6.22,-4.65 l -0.11,-0.11 c -2.46,0.82 -4.72,2.01 -6.78,3.56 -2.05,1.55 -3.96,3.3 -5.71,5.26 -1.76,1.96 -3.38,4.07 -4.87,6.33 -1.49,2.26 -2.93,4.51 -4.31,6.75 -1.38,2.24 -2.71,4.41 -3.98,6.5 -1.27,2.09 -2.58,3.93 -3.92,5.52 -1.34,1.59 -2.78,2.86 -4.31,3.81 -1.53,0.95 -3.25,1.43 -5.15,1.43 -0.49,0 -0.96,-0.04 -1.43,-0.11 -0.47,-0.08 -0.9,-0.22 -1.29,-0.45 -0.39,-0.22 -0.71,-0.52 -0.95,-0.9 -0.24,-0.37 -0.36,-0.86 -0.36,-1.46 0,-0.56 0.19,-1.03 0.56,-1.4 0.37,-0.37 0.84,-0.56 1.4,-0.56 0.48,0 0.88,0.19 1.18,0.56 0.3,0.37 0.45,0.8 0.45,1.29 0,0.3 -0.07,0.62 -0.2,0.95 -0.13,0.34 -0.35,0.54 -0.64,0.62 0.04,0.22 0.26,0.41 0.67,0.56 0.41,0.15 0.8,0.22 1.18,0.22 1.64,0 3.17,-0.51 4.59,-1.54 1.42,-1.03 2.81,-2.39 4.17,-4.09 1.36,-1.7 2.72,-3.64 4.06,-5.82 1.34,-2.18 2.74,-4.45 4.2,-6.8 1.72,-2.72 3.43,-5.28 5.15,-7.67 1.72,-2.39 3.56,-4.53 5.54,-6.41 1.98,-1.88 4.15,-3.48 6.52,-4.79 2.37,-1.31 5.07,-2.26 8.09,-2.86 l 0.06,0.5 c -2.31,0.71 -4.24,1.84 -5.77,3.39 -1.53,1.55 -2.85,3.37 -3.95,5.46 -1.1,2.09 -2.05,4.37 -2.86,6.83 -0.8,2.46 -1.62,4.96 -2.46,7.48 -0.84,2.52 -1.76,4.99 -2.77,7.42 -1.01,2.43 -2.28,4.67 -3.81,6.72 l 0.11,0.11 c 1.38,-1.19 2.77,-2.6 4.17,-4.23 1.4,-1.63 2.77,-3.32 4.12,-5.1 1.34,-1.77 2.64,-3.55 3.89,-5.32 1.25,-1.77 2.42,-3.41 3.5,-4.9 2.91,-3.99 5.58,-7.21 8.01,-9.63 2.43,-2.43 4.67,-4.3 6.72,-5.63 2.05,-1.33 3.93,-2.21 5.63,-2.66 1.7,-0.45 3.28,-0.67 4.73,-0.67 0.56,0 1.1,0.08 1.62,0.25 0.52,0.17 0.78,0.44 0.78,0.81 0,0.3 -0.11,0.49 -0.34,0.56 -0.22,0.08 -0.49,0.11 -0.78,0.11 -0.52,0 -1.07,-0.06 -1.65,-0.2 -0.58,-0.13 -1.15,-0.2 -1.71,-0.2 -0.86,0 -1.73,0.37 -2.6,1.12 -0.88,0.75 -1.75,1.72 -2.63,2.91 -0.88,1.2 -1.73,2.53 -2.55,4 -0.82,1.47 -1.58,2.93 -2.27,4.37 -0.69,1.44 -1.29,2.77 -1.79,4 -0.5,1.23 -0.91,2.2 -1.2,2.91 -0.6,1.61 -1.29,3.31 -2.07,5.12 -0.78,1.81 -1.76,3.58 -2.91,5.32 -1.16,1.74 -2.57,3.37 -4.23,4.9 -1.66,1.53 -3.69,2.82 -6.08,3.86 v 0.11 c 5.67,0 10.48,-1.23 14.42,-3.7 3.94,-2.46 7.05,-6.14 9.32,-11.03 l 0.45,0.11 z"
         fill="#746e63"
         id="path63"
         clip-path="none" />
      <path
         d="m 150.62,133.59 c -0.66,0.74 -1.39,1.33 -2.21,1.76 -0.82,0.44 -1.63,0.66 -2.42,0.66 -0.79,0 -1.42,-0.17 -1.97,-0.51 -0.55,-0.34 -0.97,-0.74 -1.27,-1.21 h -0.08 c -0.27,1.04 -0.78,2.15 -1.52,3.32 -0.74,1.18 -1.62,2.26 -2.64,3.24 -1.02,0.98 -2.15,1.8 -3.38,2.46 -1.23,0.66 -2.49,0.98 -3.77,0.98 -1.18,0 -2.06,-0.34 -2.67,-1.03 -0.6,-0.68 -0.9,-1.6 -0.9,-2.75 0,-0.6 0.15,-1.3 0.45,-2.09 0.3,-0.79 0.72,-1.59 1.25,-2.4 0.53,-0.81 1.16,-1.6 1.89,-2.38 0.72,-0.78 1.51,-1.48 2.36,-2.09 0.85,-0.62 1.74,-1.11 2.69,-1.48 0.94,-0.37 1.89,-0.55 2.85,-0.55 1.12,0 1.99,0.33 2.6,0.98 0.62,0.66 0.95,1.5 1.01,2.54 0.05,0.63 0.35,1.21 0.88,1.74 0.53,0.53 1.26,0.8 2.19,0.8 0.82,0 1.59,-0.21 2.32,-0.61 0.72,-0.41 1.4,-0.94 2.03,-1.6 l 0.33,0.21 z M 130,141.5 c 0,0.71 0.14,1.27 0.41,1.68 0.27,0.41 0.68,0.62 1.23,0.62 0.74,0 1.47,-0.2 2.19,-0.59 0.72,-0.4 1.42,-0.92 2.09,-1.56 0.67,-0.64 1.29,-1.37 1.87,-2.19 0.57,-0.82 1.07,-1.67 1.5,-2.54 0.43,-0.87 0.76,-1.73 1,-2.56 0.25,-0.83 0.37,-1.59 0.37,-2.28 0,-0.57 -0.14,-1.06 -0.43,-1.46 -0.29,-0.4 -0.73,-0.59 -1.33,-0.59 -0.6,0 -1.19,0.18 -1.85,0.55 -0.66,0.37 -1.32,0.85 -1.99,1.46 -0.67,0.6 -1.31,1.3 -1.91,2.09 -0.6,0.79 -1.14,1.61 -1.62,2.46 -0.48,0.85 -0.85,1.7 -1.13,2.54 -0.27,0.85 -0.41,1.64 -0.41,2.38 z"
         fill="#746e63"
         id="path65"
         clip-path="none" />
      <path
         d="m 171.24,133.05 c -0.6,1.07 -1.45,2.25 -2.54,3.55 -1.09,1.3 -2.28,2.52 -3.57,3.67 -1.29,1.15 -2.6,2.11 -3.96,2.87 -1.35,0.77 -2.62,1.15 -3.79,1.15 -0.98,0 -1.74,-0.23 -2.25,-0.7 -0.52,-0.46 -0.78,-1.05 -0.78,-1.76 0,-0.71 0.15,-1.33 0.45,-1.93 l -0.08,-0.08 c -0.44,0.57 -0.94,1.13 -1.5,1.66 -0.56,0.53 -1.16,1.01 -1.8,1.43 -0.64,0.42 -1.32,0.76 -2.03,1 -0.71,0.24 -1.43,0.37 -2.17,0.37 -1.29,0 -2.29,-0.31 -3.01,-0.94 -0.72,-0.63 -1.09,-1.46 -1.09,-2.5 0,-0.71 0.21,-1.31 0.62,-1.8 0.41,-0.49 0.9,-0.74 1.48,-0.74 0.52,0 0.89,0.14 1.11,0.41 0.22,0.27 0.33,0.59 0.33,0.94 0,0.35 -0.1,0.66 -0.31,0.9 -0.21,0.24 -0.5,0.37 -0.88,0.37 -0.52,0 -0.86,-0.19 -1.03,-0.57 -0.33,0.27 -0.49,0.63 -0.49,1.07 0,0.77 0.31,1.35 0.92,1.76 0.62,0.41 1.4,0.62 2.36,0.62 0.71,0 1.46,-0.2 2.23,-0.59 0.78,-0.4 1.53,-0.92 2.26,-1.56 0.72,-0.64 1.41,-1.38 2.07,-2.21 0.66,-0.83 1.23,-1.69 1.72,-2.56 0.49,-0.87 0.88,-1.74 1.17,-2.58 0.29,-0.85 0.43,-1.6 0.43,-2.25 0,-0.65 -0.16,-1.21 -0.47,-1.66 -0.32,-0.45 -0.8,-0.68 -1.46,-0.68 -0.52,0 -1,0.13 -1.46,0.39 -0.45,0.26 -0.87,0.59 -1.25,0.98 -0.38,0.4 -0.72,0.81 -1,1.23 -0.29,0.42 -0.54,0.8 -0.76,1.13 l -0.37,-0.25 c 0.33,-0.52 0.66,-1.02 1,-1.5 0.34,-0.48 0.72,-0.9 1.13,-1.27 0.41,-0.37 0.88,-0.66 1.39,-0.88 0.52,-0.22 1.11,-0.33 1.76,-0.33 0.65,0 1.17,0.1 1.62,0.31 0.45,0.21 0.83,0.49 1.13,0.84 0.3,0.36 0.53,0.75 0.7,1.19 0.16,0.44 0.25,0.9 0.25,1.39 0.33,-0.35 0.73,-0.73 1.21,-1.13 0.48,-0.4 1,-0.77 1.58,-1.11 0.57,-0.34 1.19,-0.62 1.85,-0.84 0.66,-0.22 1.33,-0.33 2.01,-0.33 0.87,0 1.56,0.21 2.07,0.63 0.51,0.42 0.76,0.94 0.76,1.54 0,0.38 -0.18,0.74 -0.53,1.07 -0.36,0.33 -0.82,0.49 -1.39,0.49 -0.11,0 -0.3,-0.03 -0.57,-0.08 0.14,-0.38 0.26,-0.73 0.37,-1.04 0.11,-0.31 0.16,-0.61 0.16,-0.88 0,-0.82 -0.38,-1.23 -1.15,-1.23 -0.63,0 -1.3,0.18 -2.01,0.55 -0.71,0.37 -1.41,0.86 -2.09,1.48 -0.68,0.61 -1.35,1.31 -1.99,2.09 -0.64,0.78 -1.2,1.58 -1.68,2.42 -0.48,0.83 -0.86,1.65 -1.15,2.44 -0.29,0.79 -0.43,1.52 -0.43,2.17 0,0.79 0.16,1.4 0.47,1.82 0.31,0.42 0.83,0.64 1.54,0.64 0.6,0 1.27,-0.18 2.01,-0.53 0.74,-0.35 1.52,-0.82 2.34,-1.39 0.82,-0.57 1.64,-1.24 2.46,-1.99 0.82,-0.75 1.6,-1.52 2.34,-2.32 0.74,-0.8 1.41,-1.58 2.01,-2.36 0.6,-0.78 1.08,-1.48 1.44,-2.11 l 0.33,0.12 z"
         fill="#746e63"
         id="path67"
         clip-path="none" />
      <path
         d="m 184.65,133.67 c -0.63,1.01 -1.46,2.1 -2.48,3.26 -1.03,1.16 -2.14,2.25 -3.34,3.26 -1.48,1.23 -2.95,2.22 -4.43,2.97 -1.48,0.75 -2.93,1.13 -4.35,1.13 -1.01,0 -1.86,-0.27 -2.54,-0.8 -0.68,-0.53 -1.02,-1.32 -1.02,-2.36 0,-1.31 0.38,-2.65 1.13,-4.02 0.75,-1.37 1.69,-2.62 2.83,-3.75 1.14,-1.13 2.38,-2.06 3.73,-2.77 1.35,-0.71 2.63,-1.07 3.83,-1.07 0.79,0 1.48,0.14 2.07,0.43 0.59,0.29 0.88,0.79 0.88,1.5 0,0.33 -0.09,0.6 -0.27,0.82 -0.18,0.22 -0.4,0.4 -0.66,0.53 -0.26,0.14 -0.55,0.24 -0.86,0.31 -0.31,0.07 -0.59,0.12 -0.84,0.14 0.11,-0.27 0.21,-0.55 0.29,-0.84 0.08,-0.29 0.12,-0.58 0.12,-0.88 0,-1.01 -0.48,-1.52 -1.44,-1.52 -0.71,0 -1.55,0.35 -2.52,1.05 -0.97,0.7 -1.89,1.58 -2.75,2.64 -0.86,1.07 -1.59,2.24 -2.19,3.53 -0.6,1.29 -0.9,2.53 -0.9,3.73 0,0.74 0.17,1.37 0.51,1.89 0.34,0.52 0.87,0.78 1.58,0.78 0.96,0 2.06,-0.31 3.3,-0.94 1.24,-0.63 2.45,-1.41 3.63,-2.34 1.23,-0.96 2.41,-2.06 3.55,-3.3 1.13,-1.24 2.08,-2.45 2.85,-3.63 z"
         fill="#746e63"
         id="path69"
         clip-path="none" />
      <path
         d="m 198.26,115.59 -14.51,21.57 0.08,0.08 c 0.55,-0.68 1.19,-1.47 1.93,-2.36 0.74,-0.89 1.54,-1.73 2.4,-2.52 0.86,-0.79 1.77,-1.46 2.73,-2.01 0.96,-0.55 1.91,-0.82 2.87,-0.82 1.67,0 2.5,0.83 2.5,2.5 0,0.44 -0.16,0.96 -0.47,1.56 -0.32,0.6 -0.71,1.24 -1.19,1.91 -0.48,0.67 -0.99,1.35 -1.54,2.03 -0.55,0.68 -1.06,1.35 -1.54,1.99 -0.48,0.64 -0.88,1.24 -1.19,1.8 -0.31,0.56 -0.47,1.03 -0.47,1.41 0,0.3 0.09,0.55 0.27,0.76 0.18,0.21 0.42,0.31 0.72,0.31 0.63,0 1.32,-0.2 2.07,-0.59 0.75,-0.4 1.53,-0.92 2.34,-1.56 0.81,-0.64 1.61,-1.36 2.4,-2.15 0.79,-0.79 1.52,-1.58 2.19,-2.36 0.67,-0.78 1.27,-1.52 1.8,-2.21 0.53,-0.7 0.92,-1.26 1.17,-1.7 l 0.25,0.08 c -0.3,0.52 -0.72,1.15 -1.27,1.89 -0.55,0.74 -1.17,1.52 -1.87,2.34 -0.7,0.82 -1.45,1.63 -2.25,2.44 -0.81,0.81 -1.61,1.53 -2.42,2.17 -0.81,0.64 -1.61,1.16 -2.4,1.56 -0.79,0.4 -1.53,0.59 -2.21,0.59 -0.68,0 -1.29,-0.22 -1.74,-0.66 -0.45,-0.44 -0.68,-1.04 -0.68,-1.8 0,-0.55 0.16,-1.15 0.47,-1.8 0.31,-0.66 0.71,-1.32 1.19,-1.99 0.48,-0.67 0.99,-1.34 1.54,-2.01 0.55,-0.67 1.06,-1.3 1.54,-1.91 0.48,-0.6 0.87,-1.15 1.19,-1.66 0.31,-0.5 0.47,-0.94 0.47,-1.29 0,-0.44 -0.12,-0.74 -0.37,-0.9 -0.25,-0.16 -0.55,-0.25 -0.9,-0.25 -0.68,0 -1.44,0.25 -2.28,0.76 -0.83,0.51 -1.69,1.17 -2.58,1.99 -0.89,0.82 -1.77,1.74 -2.64,2.77 -0.88,1.03 -1.7,2.06 -2.48,3.1 -0.78,1.04 -1.46,2.02 -2.05,2.95 -0.59,0.93 -1.04,1.72 -1.37,2.38 h -2.67 c 1.5,-2.35 3.05,-4.74 4.63,-7.17 1.58,-2.43 3.16,-4.85 4.74,-7.26 1.57,-2.41 3.11,-4.78 4.61,-7.11 1.5,-2.33 2.92,-4.57 4.26,-6.7 l 2.75,-0.12 z"
         fill="#746e63"
         id="path71"
         clip-path="none" />
      <path
         d="m 216.79,133.34 c -0.41,0.68 -0.92,1.44 -1.54,2.25 -0.62,0.82 -1.31,1.63 -2.09,2.44 -0.78,0.81 -1.61,1.59 -2.5,2.34 -0.89,0.75 -1.81,1.42 -2.77,2.01 -0.96,0.59 -1.92,1.05 -2.89,1.39 -0.97,0.34 -1.92,0.51 -2.85,0.51 -1.15,0 -2.04,-0.29 -2.67,-0.88 -0.63,-0.59 -0.94,-1.43 -0.94,-2.52 0,-1.2 0.36,-2.47 1.09,-3.79 0.73,-1.32 1.65,-2.55 2.77,-3.67 1.12,-1.12 2.35,-2.05 3.69,-2.79 1.34,-0.74 2.62,-1.11 3.85,-1.11 0.68,0 1.22,0.14 1.6,0.43 0.38,0.29 0.57,0.7 0.57,1.25 0,0.66 -0.36,1.29 -1.07,1.91 -0.71,0.62 -1.58,1.18 -2.6,1.68 -1.03,0.51 -2.13,0.96 -3.3,1.35 -1.18,0.4 -2.21,0.69 -3.12,0.88 -0.3,0.55 -0.55,1.16 -0.74,1.84 -0.19,0.68 -0.29,1.37 -0.29,2.05 0,0.33 0.03,0.65 0.1,0.96 0.07,0.31 0.18,0.6 0.33,0.86 0.15,0.26 0.35,0.47 0.61,0.64 0.26,0.17 0.58,0.25 0.96,0.25 0.9,0 1.96,-0.29 3.18,-0.88 1.22,-0.59 2.45,-1.37 3.71,-2.36 1.26,-0.98 2.46,-2.1 3.61,-3.36 1.15,-1.26 2.13,-2.56 2.95,-3.9 l 0.33,0.21 z m -6.64,-2.17 c 0,-0.38 -0.1,-0.67 -0.31,-0.86 -0.21,-0.19 -0.46,-0.29 -0.76,-0.29 -0.57,0 -1.2,0.23 -1.87,0.68 -0.67,0.45 -1.33,1.01 -1.99,1.68 -0.66,0.67 -1.25,1.39 -1.78,2.15 -0.53,0.76 -0.94,1.45 -1.21,2.05 0.6,-0.11 1.35,-0.32 2.25,-0.64 0.9,-0.31 1.77,-0.7 2.6,-1.17 0.83,-0.47 1.55,-1 2.15,-1.62 0.6,-0.62 0.9,-1.28 0.9,-1.99 z m 3.61,-10.66 c 0.3,0 0.53,0.13 0.68,0.39 0.15,0.26 0.23,0.5 0.23,0.72 0,0.57 -0.26,1.19 -0.78,1.84 -0.52,0.66 -1.1,1.27 -1.74,1.84 -0.64,0.57 -1.25,1.05 -1.82,1.44 -0.57,0.39 -0.93,0.57 -1.07,0.57 -0.14,0 -0.2,-0.05 -0.2,-0.16 0,-0.11 0.16,-0.29 0.47,-0.53 0.31,-0.24 0.66,-0.55 1.05,-0.92 0.39,-0.37 0.74,-0.78 1.09,-1.23 0.34,-0.45 0.53,-0.92 0.55,-1.42 0.05,-0.71 0.21,-1.31 0.47,-1.8 0.26,-0.49 0.62,-0.74 1.09,-0.74 z"
         fill="#746e63"
         id="path73"
         clip-path="none" />
    </g>
  </g>
</svg>
